<mxfile host="Electron" agent="Mozilla/5.0 (Windows NT 10.0; Win64; x64) AppleWebKit/537.36 (KHTML, like Gecko) draw.io/26.2.2 Chrome/134.0.6998.178 Electron/35.1.2 Safari/537.36" version="26.2.2">
  <diagram name="Страница — 1" id="1y9Sr7o9dH7gQhMGr5X-">
    <mxGraphModel dx="786" dy="1193" grid="1" gridSize="10" guides="1" tooltips="1" connect="1" arrows="1" fold="1" page="1" pageScale="1" pageWidth="827" pageHeight="1169" math="0" shadow="0">
      <root>
        <mxCell id="0" />
        <mxCell id="1" parent="0" />
        <mxCell id="7qoUN9MyfOQEjit_ppVR-1" value="&lt;p style=&quot;margin: 4px 0px 0px; text-align: center;&quot;&gt;&lt;b style=&quot;&quot;&gt;particle&lt;/b&gt;&lt;/p&gt;&lt;hr size=&quot;1&quot; style=&quot;border-style:solid;&quot;&gt;&lt;p style=&quot;margin:0px;margin-left:8px;&quot;&gt;- id&lt;/p&gt;&lt;p style=&quot;margin:0px;margin-left:8px;&quot;&gt;- position&lt;/p&gt;&lt;p style=&quot;margin:0px;margin-left:8px;&quot;&gt;- velocity&lt;/p&gt;&lt;p style=&quot;margin:0px;margin-left:8px;&quot;&gt;- acceleration&lt;/p&gt;&lt;p style=&quot;margin:0px;margin-left:8px;&quot;&gt;- radius&lt;/p&gt;&lt;p style=&quot;margin:0px;margin-left:8px;&quot;&gt;- color&lt;/p&gt;" style="verticalAlign=top;align=left;overflow=fill;html=1;whiteSpace=wrap;" vertex="1" parent="1">
          <mxGeometry x="330" y="570" width="160" height="120" as="geometry" />
        </mxCell>
        <mxCell id="7qoUN9MyfOQEjit_ppVR-2" value="&lt;p style=&quot;margin: 4px 0px 0px; text-align: center;&quot;&gt;&lt;b style=&quot;&quot;&gt;SpatialGrid&lt;/b&gt;&lt;/p&gt;&lt;hr size=&quot;1&quot; style=&quot;border-style:solid;&quot;&gt;&lt;p style=&quot;margin:0px;margin-left:8px;&quot;&gt;- cellSize&lt;/p&gt;&lt;p style=&quot;margin:0px;margin-left:8px;&quot;&gt;- gridWidth&lt;/p&gt;&lt;p style=&quot;margin:0px;margin-left:8px;&quot;&gt;- gridHeight&lt;/p&gt;&lt;p style=&quot;margin:0px;margin-left:8px;&quot;&gt;- grid&lt;/p&gt;" style="verticalAlign=top;align=left;overflow=fill;html=1;whiteSpace=wrap;" vertex="1" parent="1">
          <mxGeometry x="550" y="580" width="160" height="100" as="geometry" />
        </mxCell>
        <mxCell id="7qoUN9MyfOQEjit_ppVR-3" value="" style="endArrow=ERmany;html=1;rounded=0;exitX=0;exitY=0.5;exitDx=0;exitDy=0;entryX=1;entryY=0.5;entryDx=0;entryDy=0;startArrow=ERmandOne;startFill=0;endFill=0;" edge="1" parent="1" source="7qoUN9MyfOQEjit_ppVR-2" target="7qoUN9MyfOQEjit_ppVR-1">
          <mxGeometry width="50" height="50" relative="1" as="geometry">
            <mxPoint x="540" y="730" as="sourcePoint" />
            <mxPoint x="590" y="680" as="targetPoint" />
          </mxGeometry>
        </mxCell>
        <mxCell id="7qoUN9MyfOQEjit_ppVR-4" value="&lt;p style=&quot;margin: 4px 0px 0px; text-align: center;&quot;&gt;&lt;b style=&quot;&quot;&gt;engine&lt;/b&gt;&lt;/p&gt;&lt;hr size=&quot;1&quot; style=&quot;border-style:solid;&quot;&gt;&lt;p style=&quot;margin:0px;margin-left:8px;&quot;&gt;- gravity&lt;/p&gt;&lt;p style=&quot;margin:0px;margin-left:8px;&quot;&gt;- grid&lt;/p&gt;&lt;p style=&quot;margin:0px;margin-left:8px;&quot;&gt;- particles&lt;/p&gt;&lt;p style=&quot;margin:0px;margin-left:8px;&quot;&gt;- state&lt;/p&gt;" style="verticalAlign=top;align=left;overflow=fill;html=1;whiteSpace=wrap;" vertex="1" parent="1">
          <mxGeometry x="767" y="580" width="160" height="100" as="geometry" />
        </mxCell>
        <mxCell id="7qoUN9MyfOQEjit_ppVR-5" value="" style="endArrow=ERmandOne;html=1;rounded=0;entryX=0;entryY=0.5;entryDx=0;entryDy=0;startArrow=ERmandOne;startFill=0;endFill=0;" edge="1" parent="1" target="7qoUN9MyfOQEjit_ppVR-4">
          <mxGeometry width="50" height="50" relative="1" as="geometry">
            <mxPoint x="710" y="630" as="sourcePoint" />
            <mxPoint x="760" y="630" as="targetPoint" />
          </mxGeometry>
        </mxCell>
        <mxCell id="7qoUN9MyfOQEjit_ppVR-6" value="&lt;p style=&quot;margin: 4px 0px 0px; text-align: center;&quot;&gt;&lt;b&gt;saveState&lt;/b&gt;&lt;/p&gt;&lt;hr size=&quot;1&quot; style=&quot;border-style:solid;&quot;&gt;&lt;p style=&quot;margin:0px;margin-left:8px;&quot;&gt;- fileName&lt;/p&gt;&lt;p style=&quot;margin:0px;margin-left:8px;&quot;&gt;- particlesData&lt;/p&gt;&lt;p style=&quot;margin:0px;margin-left:8px;&quot;&gt;- metadata&lt;/p&gt;" style="verticalAlign=top;align=left;overflow=fill;html=1;whiteSpace=wrap;" vertex="1" parent="1">
          <mxGeometry x="550" y="740" width="160" height="100" as="geometry" />
        </mxCell>
        <mxCell id="7qoUN9MyfOQEjit_ppVR-7" value="&lt;p style=&quot;margin: 4px 0px 0px; text-align: center;&quot;&gt;&lt;b style=&quot;&quot;&gt;benchmark&lt;/b&gt;&lt;/p&gt;&lt;hr size=&quot;1&quot; style=&quot;border-style:solid;&quot;&gt;&lt;p style=&quot;margin:0px;margin-left:8px;&quot;&gt;- physicsTime&lt;br&gt;&lt;/p&gt;&lt;p style=&quot;margin:0px;margin-left:8px;&quot;&gt;- renderTime&lt;/p&gt;&lt;p style=&quot;margin:0px;margin-left:8px;&quot;&gt;- fpsValues&lt;/p&gt;&lt;p style=&quot;margin:0px;margin-left:8px;&quot;&gt;- particleCount&lt;/p&gt;" style="verticalAlign=top;align=left;overflow=fill;html=1;whiteSpace=wrap;" vertex="1" parent="1">
          <mxGeometry x="330" y="740" width="160" height="100" as="geometry" />
        </mxCell>
        <mxCell id="7qoUN9MyfOQEjit_ppVR-8" value="" style="endArrow=ERmany;html=1;rounded=0;exitX=0.5;exitY=0;exitDx=0;exitDy=0;entryX=0.5;entryY=1;entryDx=0;entryDy=0;startArrow=ERmandOne;startFill=0;endFill=0;" edge="1" parent="1" source="7qoUN9MyfOQEjit_ppVR-7" target="7qoUN9MyfOQEjit_ppVR-1">
          <mxGeometry width="50" height="50" relative="1" as="geometry">
            <mxPoint x="530" y="870" as="sourcePoint" />
            <mxPoint x="580" y="820" as="targetPoint" />
          </mxGeometry>
        </mxCell>
        <mxCell id="7qoUN9MyfOQEjit_ppVR-9" value="" style="endArrow=ERmandOne;html=1;rounded=0;exitX=1;exitY=0.5;exitDx=0;exitDy=0;entryX=0;entryY=0.5;entryDx=0;entryDy=0;startArrow=ERmandOne;startFill=0;endFill=0;" edge="1" parent="1" source="7qoUN9MyfOQEjit_ppVR-7" target="7qoUN9MyfOQEjit_ppVR-6">
          <mxGeometry width="50" height="50" relative="1" as="geometry">
            <mxPoint x="560" y="810" as="sourcePoint" />
            <mxPoint x="610" y="760" as="targetPoint" />
          </mxGeometry>
        </mxCell>
      </root>
    </mxGraphModel>
  </diagram>
</mxfile>
